<svg width="131" height="26" viewBox="0 0 131 26" fill="none" xmlns="http://www.w3.org/2000/svg">
<mask id="mask0_146_4428" style="mask-type:luminance" maskUnits="userSpaceOnUse" x="0" y="0" width="131" height="26">
<path d="M131 0H0V25.0947H131V0Z" fill="white"/>
</mask>
<g mask="url(#mask0_146_4428)">
<path d="M55.1814 12.5472C55.1814 15.7353 53.558 16.5729 52.1845 16.5729C50.811 16.5729 49.1874 15.7353 49.1874 12.5472C49.1874 9.35918 50.8709 8.50909 52.1845 8.50909C53.4979 8.50909 55.1814 9.35918 55.1814 12.5472ZM46.8105 12.5472C46.8105 17.3299 49.2163 19.03 52.1845 19.03C55.1525 19.03 57.5585 17.3299 57.5585 12.5472C57.5585 7.76463 55.1701 6.06445 52.1845 6.06445C49.1987 6.06445 46.8105 7.76463 46.8105 12.5472Z" fill="white"/>
<path d="M68.2113 6.27344C68.0397 6.27344 67.9013 6.41356 67.9013 6.58713V13.3836C67.9013 16.1545 66.3512 16.625 65.5244 16.625C64.6977 16.625 63.1473 16.1545 63.1473 13.3836V6.58713C63.1473 6.41356 63.0089 6.27344 62.8373 6.27344H61.0804C60.9088 6.27344 60.7704 6.41356 60.7704 6.58713V13.3836C60.7704 17.7229 63.5607 19.0299 65.5244 19.0299C67.4879 19.0299 70.2782 17.8274 70.2782 13.3836V6.58713C70.2782 6.41356 70.1398 6.27344 69.9682 6.27344H68.2113Z" fill="white"/>
<path d="M105.424 6.27344C105.252 6.27344 105.114 6.41356 105.114 6.58713V13.3836C105.114 16.1545 103.564 16.625 102.737 16.625C101.91 16.625 100.36 16.1545 100.36 13.3836V6.58713C100.36 6.41356 100.222 6.27344 100.05 6.27344H98.2931C98.1215 6.27344 97.9831 6.41356 97.9831 6.58713V13.3836C97.9831 17.7229 100.773 19.0299 102.737 19.0299C104.701 19.0299 107.491 17.8274 107.491 13.3836V6.58713C107.491 6.41356 107.352 6.27344 107.181 6.27344H105.424Z" fill="white"/>
<path d="M82.4213 6.58713C82.4213 6.41356 82.2829 6.27344 82.1113 6.27344H78.9592H76.5824H73.4303C73.2587 6.27344 73.1203 6.41356 73.1203 6.58713V8.36466C73.1203 8.53823 73.2587 8.67835 73.4303 8.67835H76.5824V18.5071C76.5824 18.6807 76.7208 18.8208 76.8923 18.8208H78.6493C78.8208 18.8208 78.9592 18.6807 78.9592 18.5071V8.67835H82.1113C82.2829 8.67835 82.4213 8.53823 82.4213 8.36466V6.58713Z" fill="white"/>
<path d="M131 6.58713C131 6.41356 130.862 6.27344 130.69 6.27344H127.538H125.161H122.009C121.837 6.27344 121.699 6.41356 121.699 6.58713V8.36466C121.699 8.53823 121.837 8.67835 122.009 8.67835H125.161V18.5071C125.161 18.6807 125.299 18.8208 125.471 18.8208H127.228C127.4 18.8208 127.538 18.6807 127.538 18.5071V8.67835H130.69C130.862 8.67835 131 8.53823 131 8.36466V6.58713Z" fill="white"/>
<path d="M94.5646 10.4559C94.5646 8.41695 93.4794 6.27344 90.4308 6.27344H87.6403H85.5733C85.4029 6.27344 85.2634 6.41459 85.2634 6.58713V14.6383V18.5071C85.2634 18.6807 85.4018 18.8208 85.5733 18.8208H87.3303C87.5018 18.8208 87.6403 18.6807 87.6403 18.5071V14.6383H90.4308C90.5494 14.6383 90.6652 14.6352 90.779 14.6279L92.1161 18.6075C92.1586 18.735 92.2775 18.8197 92.4098 18.8197H94.1314C94.3444 18.8197 94.4932 18.6085 94.4249 18.4046L92.9306 13.9566C94.1015 13.164 94.5646 11.788 94.5646 10.4559ZM87.6403 12.2334V8.67835H90.0174C91.0713 8.66789 92.1875 9.0966 92.1875 10.4559C92.1875 11.8152 90.9855 12.2334 90.0174 12.2334H87.6403Z" fill="white"/>
<path d="M110.447 15.8398L112.058 14.9092C112.211 14.8203 112.408 14.8789 112.487 15.0389C112.973 16.0176 113.84 16.5665 115.279 16.5665C116.787 16.5665 117.357 16.0312 117.357 15.3306C117.357 14.3969 116.46 14.0382 114.57 13.4997C112.626 12.9435 110.795 12.1352 110.795 9.74806C110.795 7.37872 112.735 6.06543 114.915 6.06543C116.891 6.06543 118.429 6.96675 119.312 8.55189C119.396 8.70351 119.345 8.89589 119.195 8.98165L117.626 9.87667C117.479 9.96032 117.293 9.91119 117.208 9.7648C116.753 8.97954 116.077 8.52994 114.914 8.52994C113.86 8.52994 113.171 8.95759 113.171 9.67593C113.171 10.4476 113.733 10.8606 115.659 11.4346C117.677 12.0631 119.733 12.727 119.733 15.294C119.733 17.6456 117.912 19.03 115.205 19.03C112.732 19.03 111.065 17.954 110.314 16.2403C110.252 16.0928 110.307 15.9193 110.447 15.8398Z" fill="white"/>
<path fill-rule="evenodd" clip-rule="evenodd" d="M43.0374 6.45642L39.879 12.0003C39.8595 12.0347 39.8098 12.0347 39.7892 12.0003L36.631 6.45642C36.573 6.35603 36.4324 6.27344 36.3178 6.27344H34.3398C34.0938 6.27344 33.9925 6.45014 34.1165 6.66554L38.6463 14.5861V18.7162C38.6463 18.8887 38.7858 19.0299 38.9563 19.0299H40.7132C40.8837 19.0299 41.0232 18.8887 41.0232 18.7162V14.5861L45.5528 6.66554C45.6757 6.45014 45.5755 6.27344 45.3296 6.27344H43.3514C43.2357 6.27344 43.0952 6.35603 43.0374 6.45642Z" fill="white"/>
<path d="M23.783 15.039L18.5702 13.7216C17.4851 10.1069 14.1656 7.4751 10.2374 7.4751C7.83153 7.4751 5.65404 8.46215 4.07803 10.0578C3.09313 11.0532 1.73414 11.668 0.232528 11.668C0.16432 11.668 0.0961115 11.6659 0.0279034 11.6638C0.0103346 11.9566 0 12.2504 0 12.5473C0 16.3628 1.49955 19.8238 3.93333 22.3614C5.51969 24.0449 7.75713 25.0947 10.2374 25.0947C12.6423 25.0947 14.8198 24.1087 16.3948 22.5141L23.783 15.039Z" fill="#157577"/>
<path d="M23.9286 2.73113C22.3435 1.04875 20.1059 0 17.6256 0C15.2208 0 13.0443 0.986022 11.4683 2.58057L4.16691 9.96782C4.15657 9.97828 4.14623 9.98769 4.13589 9.99815C4.11109 10.0243 4.08526 10.0494 4.06046 10.0745C3.37735 10.7583 2.5175 11.2612 1.55536 11.5038C1.73311 11.8531 1.92534 12.1939 2.12996 12.5264C2.12996 12.5264 2.12996 12.5264 2.12996 12.5275C2.17544 12.6017 2.22193 12.6749 2.26947 12.7481C2.27257 12.7533 2.27567 12.7586 2.27981 12.7648C4.76631 16.62 9.06652 19.1671 13.9548 19.1671C17.917 19.1671 21.4929 17.4931 24.0288 14.8059C24.9889 13.9474 26.2499 13.4267 27.6306 13.4267C27.6987 13.4267 27.7669 13.4288 27.835 13.4309C27.8527 13.1392 27.8631 12.8443 27.8631 12.5474C27.8631 8.73087 26.3635 5.26988 23.9286 2.73113Z" fill="#309DA5"/>
</g>
</svg>
